<svg xmlns="http://www.w3.org/2000/svg" xmlns:xlink="http://www.w3.org/1999/xlink" width="512" zoomAndPan="magnify" viewBox="0 0 384 383.999986" height="512" preserveAspectRatio="xMidYMid meet" version="1.2"><defs><clipPath id="5fae2dca5d"><path d="M 95.703125 29.222656 L 143.429688 29.222656 L 143.429688 355.769531 L 95.703125 355.769531 Z M 95.703125 29.222656 "/></clipPath><clipPath id="b1bb798f3e"><path d="M 106.710938 338.804688 L 297.320312 338.804688 L 297.320312 355.769531 L 106.710938 355.769531 Z M 106.710938 338.804688 "/></clipPath><clipPath id="09fd06c330"><path d="M 277.375 263.390625 L 303.054688 263.390625 L 303.054688 362.886719 L 277.375 362.886719 Z M 277.375 263.390625 "/></clipPath><clipPath id="1d91addeb5"><path d="M 290.214844 263.390625 C 297.304688 263.390625 303.054688 269.140625 303.054688 276.230469 L 303.054688 350.011719 C 303.054688 357.101562 297.304688 362.851562 290.214844 362.851562 C 283.125 362.851562 277.375 357.101562 277.375 350.011719 L 277.375 276.230469 C 277.375 269.140625 283.125 263.390625 290.214844 263.390625 Z M 290.214844 263.390625 "/></clipPath></defs><g id="e45f6f4e45"><g style="fill:#00b2ff;fill-opacity:1;"><g transform="translate(74.78672, 357.374972)"><path style="stroke:none" d="M 19.578125 4.296875 C 16.710938 4.296875 15.28125 2.863281 15.28125 0 L 15.28125 -329.859375 C 15.28125 -332.722656 16.710938 -334.15625 19.578125 -334.15625 L 69.6875 -334.15625 C 72.550781 -334.15625 73.984375 -332.722656 73.984375 -329.859375 L 73.984375 -4.296875 L 214.328125 -4.296875 L 214.328125 -87.359375 C 214.328125 -90.535156 215.921875 -92.125 219.109375 -92.125 C 221.972656 -92.125 223.40625 -90.535156 223.40625 -87.359375 L 223.40625 0 C 223.40625 2.863281 221.972656 4.296875 219.109375 4.296875 Z M 24.34375 -325.078125 L 24.34375 -4.296875 L 64.921875 -4.296875 L 64.921875 -325.078125 Z M 24.34375 -325.078125 "/></g></g><g style="fill:#00b2ff;fill-opacity:1;"><g transform="translate(187.33277, 282.182432)"><path style="stroke:none" d="M 104.6875 -112.96875 C 106.59375 -112.96875 107.546875 -111.90625 107.546875 -109.78125 C 107.546875 -107.875 106.59375 -106.921875 104.6875 -106.921875 L 62.046875 -106.921875 L 62.046875 -64.28125 C 62.046875 -62.15625 60.988281 -61.09375 58.875 -61.09375 C 56.957031 -61.09375 56 -62.15625 56 -64.28125 L 56 -106.921875 L 13.046875 -106.921875 C 11.140625 -106.921875 10.1875 -107.875 10.1875 -109.78125 C 10.1875 -111.90625 11.140625 -112.96875 13.046875 -112.96875 L 56 -112.96875 L 56 -155.59375 C 56 -157.507812 56.957031 -158.46875 58.875 -158.46875 C 60.988281 -158.46875 62.046875 -157.507812 62.046875 -155.59375 L 62.046875 -112.96875 Z M 104.6875 -112.96875 "/></g></g><g clip-rule="nonzero" clip-path="url(#5fae2dca5d)"><path style=" stroke:none;fill-rule:nonzero;fill:#00b2ff;fill-opacity:1;" d="M 95.703125 29.222656 L 143.429688 29.222656 L 143.429688 355.855469 L 95.703125 355.855469 Z M 95.703125 29.222656 "/></g><g clip-rule="nonzero" clip-path="url(#b1bb798f3e)"><path style=" stroke:none;fill-rule:nonzero;fill:#00b2ff;fill-opacity:1;" d="M 106.710938 338.804688 L 297.328125 338.804688 L 297.328125 355.769531 L 106.710938 355.769531 Z M 106.710938 338.804688 "/></g><g clip-rule="nonzero" clip-path="url(#09fd06c330)"><g clip-rule="nonzero" clip-path="url(#1d91addeb5)"><path style=" stroke:none;fill-rule:nonzero;fill:#00b2ff;fill-opacity:1;" d="M 277.375 263.390625 L 303.054688 263.390625 L 303.054688 362.886719 L 277.375 362.886719 Z M 277.375 263.390625 "/></g></g></g></svg>